<?xml version="1.0" encoding="UTF-8" standalone="no"?>
<!-- Created with Inkscape (http://www.inkscape.org/) -->

<svg
   xmlns:dc="http://purl.org/dc/elements/1.1/"
   xmlns:cc="http://creativecommons.org/ns#"
   xmlns:rdf="http://www.w3.org/1999/02/22-rdf-syntax-ns#"
   xmlns:svg="http://www.w3.org/2000/svg"
   xmlns="http://www.w3.org/2000/svg"
   xmlns:sodipodi="http://sodipodi.sourceforge.net/DTD/sodipodi-0.dtd"
   xmlns:inkscape="http://www.inkscape.org/namespaces/inkscape"
   width="124.60645"
   height="173.93164"
   id="svg3797"
   version="1.1"
   inkscape:version="0.48.1 r9760"
   sodipodi:docname="century.svg">
  <defs
     id="defs3799" />
  <sodipodi:namedview
     id="base"
     pagecolor="#ffffff"
     bordercolor="#666666"
     borderopacity="1.0"
     inkscape:pageopacity="0.0"
     inkscape:pageshadow="2"
     inkscape:zoom="0.98994949"
     inkscape:cx="256.52664"
     inkscape:cy="117.42887"
     inkscape:document-units="px"
     inkscape:current-layer="layer1"
     showgrid="false"
     fit-margin-top="0"
     fit-margin-left="0"
     fit-margin-right="0"
     fit-margin-bottom="0"
     inkscape:window-width="1280"
     inkscape:window-height="744"
     inkscape:window-x="0"
     inkscape:window-y="26"
     inkscape:window-maximized="1" />
  <metadata
     id="metadata3802">
    <rdf:RDF>
      <cc:Work
         rdf:about="">
        <dc:format>image/svg+xml</dc:format>
        <dc:type
           rdf:resource="http://purl.org/dc/dcmitype/StillImage" />
        <dc:title></dc:title>
      </cc:Work>
    </rdf:RDF>
  </metadata>
  <g
     inkscape:label="Layer 1"
     inkscape:groupmode="layer"
     id="layer1"
     transform="translate(-59.066094,-81.844633)">
    <path
       style="fill:#000000;fill-opacity:1;stroke:none"
       d="m 120.77317,81.844633 c -1.81796,0 -1.54035,2.092147 -2.72204,2.092147 -1.18167,0 -1.81488,3.261947 -2.54206,3.261947 -0.7272,0 -1.09319,-2.002164 -2.00216,-2.002164 -0.90899,0 -4.99325,5.011175 -5.08415,5.556567 -0.0909,0.545391 0.62989,1.259783 0.62989,1.259783 l -0.09,5.646549 -8.998467,3.081968 c 0,0 -0.269959,-2.259322 -0.269959,-3.531893 0,-1.272581 -4.640265,-2.654552 -6.276441,-2.654552 -1.636165,0 -0.719875,9.380915 -0.719875,9.380915 0,0 -0.650215,0.0791 -3.104475,1.1698 -2.454253,1.09078 -4.985934,1.73678 -5.804018,1.28228 -0.818084,-0.45448 -0.0097,-2.92358 -1.282284,-3.01449 -1.272579,-0.0909 -1.167974,-1.17859 -1.349772,-2.54206 -0.181797,-1.363483 -1.920052,-1.642235 -3.374429,-1.642235 -1.45437,0 -2.083919,2.557265 -2.902009,3.284455 -0.818084,0.72718 -1.012329,1.46225 -1.012329,1.46225 l -2.002162,-0.65239 c 0,0 -2.092146,0.0997 -2.092146,1.37227 0,1.27258 -0.168092,1.73129 -1.349772,1.82219 -1.18168,0.0909 -1.372268,2.72204 -1.372268,2.72204 l 0.179969,28.72764 c 0,0 -0.80347,-0.56332 -1.439756,-0.47242 -0.636294,0.0909 -1.551323,6.63604 -1.642223,8.9085 -0.0909,2.27245 0.08633,4.01585 0.449925,5.10664 0.363595,1.09077 0,2.18213 0,2.18213 l -0.989833,2.99199 0,45.26234 c 0,0.81809 -1.102313,-0.71839 -1.102313,1.37228 0,2.09066 -1.349773,6.63637 -1.349773,6.63637 l -1.012329,2.63206 0.922345,1.55223 0,7.62621 c 0,0 -2.002162,1.09501 -2.002162,1.8222 0,0.72718 1.169803,1.55224 1.169803,1.55224 l 0.04939,30.67586 121.571633,0 -0.45649,-29.3261 2.27211,-2.09214 -0.09,-1.07982 -3.5319,-3.64438 0.17997,-5.17412 c 0,0 1.34976,-0.37056 1.34976,-1.55224 0,-1.18168 -1.61972,-0.53991 -1.61972,-0.53991 0,0 -0.46785,-3.53978 -0.92234,-4.99416 -0.4545,-1.45437 -1.70972,-1.64222 -1.70972,-1.64222 l 0.09,-46.27467 c 0,0 -1.01233,-1.17859 -1.01233,-2.54207 0,-1.36347 0.71988,-2.63812 0.71988,-4.27428 0,-1.63618 -0.89985,-4.2712 -0.89985,-6.81635 0,-2.54516 -0.80712,-4.91113 -1.07982,-6.45641 -0.27269,-1.54527 -2.18213,-1.34977 -2.18213,-1.34977 l 0,-24.2734 c 0,0 0.16479,-5.36106 -0.5624,-6.90633 -0.72718,-1.54528 -1.54584,-1.37136 -2.18213,-1.46226 -0.63629,-0.0909 -0.34623,-2.09032 -1.70971,-2.27211 -1.36347,-0.1818 -0.64325,1.28228 -1.55224,1.28228 -0.90899,0 -1.45038,-1.19048 -2.63206,-1.37226 -1.18168,-0.1818 -1.91731,-3.081984 -3.64438,-3.081984 -1.72707,0 -1.53944,2.902004 -2.81202,2.902004 -1.27257,0 -2.45209,5.08415 -2.45209,5.08415 l -7.17628,-3.26195 0,-3.28444 c 0,0 0.80985,-0.53352 0.80985,-1.16981 0,-0.636295 -0.71987,-0.922342 -0.71987,-0.922342 l -0.09,-2.362106 c 0,0 -0.18877,-2.091232 -1.55224,-2.18213 -1.36348,-0.09088 -5.46657,2.18213 -5.46657,2.18213 l 0,4.836678 -7.71621,-4.18429 0,-6.726357 c 0,0 -1.08769,-0.472994 -2.54207,-2.654552 -1.45437,-2.181567 -2.45996,-2.999302 -3.91433,-2.272113 -1.45438,0.72718 -1.81215,-1.979668 -2.81202,-1.979668 -0.99989,0 -1.64645,-2.092147 -3.46441,-2.092147 z m -14.35256,50.886397 0.62989,41.37051 -5.71404,1.82219 -0.29244,-37.8161 c 1.42565,-3.58664 3.71191,-4.65819 5.37659,-5.3766 z m 30.25739,0.5624 c 1.47449,0.82087 2.70432,1.72638 3.55439,3.84686 l 0,39.14338 -3.41942,-1.7772 z m -42.877761,5.08415 0,40.22319 -7.108799,1.59723 -0.314947,-37.38867 c 4.40138,-2.94853 3.998097,-4.11883 7.423746,-4.43175 z m 54.890721,0.0674 c 2.45567,-0.006 5.05503,1.77949 6.90633,4.83668 l -0.09,38.71596 -7.87367,-3.08198 0,-40.35817 c 0.34203,-0.0755 0.70651,-0.1117 1.05732,-0.11249 z"
       id="path4326"
       inkscape:connector-curvature="0"
       sodipodi:nodetypes="csssscccsscssssssccssccsssccssccccsccccccccscsccssssccssssssscccsccsccccssssccccccccccccccccccccccc" />
  </g>
</svg>
